<svg xmlns="http://www.w3.org/2000/svg" viewBox="0 0 606 2636" font-family="system-ui, -apple-system, sans-serif">
  <rect width="606" height="2636" fill="#141414"/>
  <text x="24" y="40" fill="#00b4b4" font-size="15px" font-weight="bold" font-family="monospace">L0  _NUM_ON   Numpad (OS Num Lock on)</text>
  <rect x="24" y="50" width="60" height="45" rx="6" fill="#00b4b4" stroke="#00b4b4" stroke-width="1.5"/>
  <text x="54.0" y="72.5" text-anchor="middle" dominant-baseline="central" fill="#0e0e0e" font-size="15px" font-family="monospace">Num</text>
  <rect x="90" y="50" width="60" height="45" rx="6" fill="#8000ff" stroke="#8000ff" stroke-width="1.5"/>
  <text x="120.0" y="72.5" text-anchor="middle" dominant-baseline="central" fill="#0e0e0e" font-size="12px" font-family="monospace">→HYPR</text>
  <rect x="156" y="50" width="60" height="45" rx="6" fill="#0050ff" stroke="#0050ff" stroke-width="1.5"/>
  <text x="186.0" y="72.5" text-anchor="middle" dominant-baseline="central" fill="#0e0e0e" font-size="12px" font-family="monospace">→LCAG</text>
  <rect x="222" y="50" width="60" height="45" rx="6" fill="#ffa000" stroke="#ffa000" stroke-width="1.5"/>
  <text x="252.0" y="72.5" text-anchor="middle" dominant-baseline="central" fill="#0e0e0e" font-size="12px" font-family="monospace">→MEH</text>
  <rect x="24" y="101" width="60" height="75" rx="6" fill="#2d2d2d" stroke="#555" stroke-width="1.5"/>
  <text x="54.0" y="138.5" text-anchor="middle" dominant-baseline="central" fill="#e0e0e0" font-size="15px" font-family="monospace">Num</text>
  <rect x="90" y="101" width="60" height="75" rx="6" fill="#2d2d2d" stroke="#555" stroke-width="1.5"/>
  <text x="120.0" y="138.5" text-anchor="middle" dominant-baseline="central" fill="#e0e0e0" font-size="15px" font-family="monospace">/</text>
  <rect x="156" y="101" width="60" height="75" rx="6" fill="#2d2d2d" stroke="#555" stroke-width="1.5"/>
  <text x="186.0" y="138.5" text-anchor="middle" dominant-baseline="central" fill="#e0e0e0" font-size="15px" font-family="monospace">*</text>
  <rect x="222" y="101" width="60" height="75" rx="6" fill="#2d2d2d" stroke="#555" stroke-width="1.5"/>
  <text x="252.0" y="138.5" text-anchor="middle" dominant-baseline="central" fill="#e0e0e0" font-size="15px" font-family="monospace">=</text>
  <rect x="24" y="194" width="60" height="75" rx="6" fill="#2d2d2d" stroke="#555" stroke-width="1.5"/>
  <text x="54.0" y="231.5" text-anchor="middle" dominant-baseline="central" fill="#e0e0e0" font-size="15px" font-family="monospace">7</text>
  <rect x="90" y="194" width="60" height="75" rx="6" fill="#2d2d2d" stroke="#555" stroke-width="1.5"/>
  <text x="120.0" y="231.5" text-anchor="middle" dominant-baseline="central" fill="#e0e0e0" font-size="15px" font-family="monospace">8</text>
  <rect x="156" y="194" width="60" height="75" rx="6" fill="#2d2d2d" stroke="#555" stroke-width="1.5"/>
  <text x="186.0" y="231.5" text-anchor="middle" dominant-baseline="central" fill="#e0e0e0" font-size="15px" font-family="monospace">9</text>
  <rect x="222" y="194" width="60" height="75" rx="6" fill="#2d2d2d" stroke="#555" stroke-width="1.5"/>
  <text x="252.0" y="231.5" text-anchor="middle" dominant-baseline="central" fill="#e0e0e0" font-size="15px" font-family="monospace">-</text>
  <rect x="24" y="275" width="60" height="75" rx="6" fill="#2d2d2d" stroke="#555" stroke-width="1.5"/>
  <text x="54.0" y="312.5" text-anchor="middle" dominant-baseline="central" fill="#e0e0e0" font-size="15px" font-family="monospace">4</text>
  <rect x="90" y="275" width="60" height="75" rx="6" fill="#2d2d2d" stroke="#555" stroke-width="1.5"/>
  <text x="120.0" y="312.5" text-anchor="middle" dominant-baseline="central" fill="#e0e0e0" font-size="15px" font-family="monospace">5</text>
  <rect x="156" y="275" width="60" height="75" rx="6" fill="#2d2d2d" stroke="#555" stroke-width="1.5"/>
  <text x="186.0" y="312.5" text-anchor="middle" dominant-baseline="central" fill="#e0e0e0" font-size="15px" font-family="monospace">6</text>
  <rect x="222" y="275" width="60" height="75" rx="6" fill="#2d2d2d" stroke="#555" stroke-width="1.5"/>
  <text x="252.0" y="312.5" text-anchor="middle" dominant-baseline="central" fill="#e0e0e0" font-size="15px" font-family="monospace">+</text>
  <rect x="24" y="356" width="60" height="75" rx="6" fill="#2d2d2d" stroke="#555" stroke-width="1.5"/>
  <text x="54.0" y="393.5" text-anchor="middle" dominant-baseline="central" fill="#e0e0e0" font-size="15px" font-family="monospace">1</text>
  <rect x="90" y="356" width="60" height="75" rx="6" fill="#2d2d2d" stroke="#555" stroke-width="1.5"/>
  <text x="120.0" y="393.5" text-anchor="middle" dominant-baseline="central" fill="#e0e0e0" font-size="15px" font-family="monospace">2</text>
  <rect x="156" y="356" width="60" height="75" rx="6" fill="#2d2d2d" stroke="#555" stroke-width="1.5"/>
  <text x="186.0" y="393.5" text-anchor="middle" dominant-baseline="central" fill="#e0e0e0" font-size="15px" font-family="monospace">3</text>
  <rect x="222" y="356" width="60" height="75" rx="6" fill="#2d2d2d" stroke="#555" stroke-width="1.5"/>
  <text x="252.0" y="393.5" text-anchor="middle" dominant-baseline="central" fill="#e0e0e0" font-size="12px" font-family="monospace">Enter</text>
  <rect x="24" y="449" width="147" height="75" rx="6" fill="#2d2d2d" stroke="#555" stroke-width="1.5"/>
  <text x="97.5" y="486.5" text-anchor="middle" dominant-baseline="central" fill="#e0e0e0" font-size="15px" font-family="monospace">0</text>
  <rect x="177" y="449" width="60" height="75" rx="6" fill="#2d2d2d" stroke="#555" stroke-width="1.5"/>
  <text x="207.0" y="486.5" text-anchor="middle" dominant-baseline="central" fill="#e0e0e0" font-size="15px" font-family="monospace">0</text>
  <rect x="243" y="449" width="60" height="75" rx="6" fill="#2d2d2d" stroke="#555" stroke-width="1.5"/>
  <text x="273.0" y="486.5" text-anchor="middle" dominant-baseline="central" fill="#e0e0e0" font-size="15px" font-family="monospace">.</text>
  <rect x="309" y="449" width="60" height="75" rx="6" fill="#2d2d2d" stroke="#555" stroke-width="1.5"/>
  <text x="339.0" y="486.5" text-anchor="middle" dominant-baseline="central" fill="#e0e0e0" font-size="12px" font-family="monospace">Enter</text>
  <text x="24" y="562" fill="#00b400" font-size="15px" font-weight="bold" font-family="monospace">L1  _NUM_OFF  Nav (OS Num Lock off, falls through to _NUM_ON)</text>
  <rect x="24" y="572" width="60" height="45" rx="6" fill="#00b4b4" stroke="#00b4b4" stroke-width="1.5"/>
  <text x="54.0" y="594.5" text-anchor="middle" dominant-baseline="central" fill="#0e0e0e" font-size="15px" font-family="monospace">Num</text>
  <rect x="90" y="572" width="60" height="45" rx="6" fill="#8000ff" stroke="#8000ff" stroke-width="1.5"/>
  <text x="120.0" y="594.5" text-anchor="middle" dominant-baseline="central" fill="#0e0e0e" font-size="12px" font-family="monospace">→HYPR</text>
  <rect x="156" y="572" width="60" height="45" rx="6" fill="#0050ff" stroke="#0050ff" stroke-width="1.5"/>
  <text x="186.0" y="594.5" text-anchor="middle" dominant-baseline="central" fill="#0e0e0e" font-size="12px" font-family="monospace">→LCAG</text>
  <rect x="222" y="572" width="60" height="45" rx="6" fill="#ffa000" stroke="#ffa000" stroke-width="1.5"/>
  <text x="252.0" y="594.5" text-anchor="middle" dominant-baseline="central" fill="#0e0e0e" font-size="12px" font-family="monospace">→MEH</text>
  <rect x="24" y="623" width="60" height="75" rx="6" fill="#1a1a1a" stroke="#333" stroke-width="1.5"/>
  <text x="54.0" y="660.5" text-anchor="middle" dominant-baseline="central" fill="#555" font-size="15px" font-family="monospace">·</text>
  <rect x="90" y="623" width="60" height="75" rx="6" fill="#1a1a1a" stroke="#333" stroke-width="1.5"/>
  <text x="120.0" y="660.5" text-anchor="middle" dominant-baseline="central" fill="#555" font-size="15px" font-family="monospace">·</text>
  <rect x="156" y="623" width="60" height="75" rx="6" fill="#1a1a1a" stroke="#333" stroke-width="1.5"/>
  <text x="186.0" y="660.5" text-anchor="middle" dominant-baseline="central" fill="#555" font-size="15px" font-family="monospace">·</text>
  <rect x="222" y="623" width="60" height="75" rx="6" fill="#1a1a1a" stroke="#333" stroke-width="1.5"/>
  <text x="252.0" y="660.5" text-anchor="middle" dominant-baseline="central" fill="#555" font-size="15px" font-family="monospace">·</text>
  <rect x="24" y="716" width="60" height="75" rx="6" fill="#1a1a1a" stroke="#333" stroke-width="1.5"/>
  <text x="54.0" y="753.5" text-anchor="middle" dominant-baseline="central" fill="#555" font-size="15px" font-family="monospace">·</text>
  <rect x="90" y="716" width="60" height="75" rx="6" fill="#1a1a1a" stroke="#333" stroke-width="1.5"/>
  <text x="120.0" y="753.5" text-anchor="middle" dominant-baseline="central" fill="#555" font-size="15px" font-family="monospace">·</text>
  <rect x="156" y="716" width="60" height="75" rx="6" fill="#1a1a1a" stroke="#333" stroke-width="1.5"/>
  <text x="186.0" y="753.5" text-anchor="middle" dominant-baseline="central" fill="#555" font-size="15px" font-family="monospace">·</text>
  <rect x="222" y="716" width="60" height="75" rx="6" fill="#1a1a1a" stroke="#333" stroke-width="1.5"/>
  <text x="252.0" y="753.5" text-anchor="middle" dominant-baseline="central" fill="#555" font-size="15px" font-family="monospace">·</text>
  <rect x="24" y="797" width="60" height="75" rx="6" fill="#1a1a1a" stroke="#333" stroke-width="1.5"/>
  <text x="54.0" y="834.5" text-anchor="middle" dominant-baseline="central" fill="#555" font-size="15px" font-family="monospace">·</text>
  <rect x="90" y="797" width="60" height="75" rx="6" fill="#1a1a1a" stroke="#333" stroke-width="1.5"/>
  <text x="120.0" y="834.5" text-anchor="middle" dominant-baseline="central" fill="#555" font-size="15px" font-family="monospace">·</text>
  <rect x="156" y="797" width="60" height="75" rx="6" fill="#1a1a1a" stroke="#333" stroke-width="1.5"/>
  <text x="186.0" y="834.5" text-anchor="middle" dominant-baseline="central" fill="#555" font-size="15px" font-family="monospace">·</text>
  <rect x="222" y="797" width="60" height="75" rx="6" fill="#1a1a1a" stroke="#333" stroke-width="1.5"/>
  <text x="252.0" y="834.5" text-anchor="middle" dominant-baseline="central" fill="#555" font-size="15px" font-family="monospace">·</text>
  <rect x="24" y="878" width="60" height="75" rx="6" fill="#1a1a1a" stroke="#333" stroke-width="1.5"/>
  <text x="54.0" y="915.5" text-anchor="middle" dominant-baseline="central" fill="#555" font-size="15px" font-family="monospace">·</text>
  <rect x="90" y="878" width="60" height="75" rx="6" fill="#1a1a1a" stroke="#333" stroke-width="1.5"/>
  <text x="120.0" y="915.5" text-anchor="middle" dominant-baseline="central" fill="#555" font-size="15px" font-family="monospace">·</text>
  <rect x="156" y="878" width="60" height="75" rx="6" fill="#1a1a1a" stroke="#333" stroke-width="1.5"/>
  <text x="186.0" y="915.5" text-anchor="middle" dominant-baseline="central" fill="#555" font-size="15px" font-family="monospace">·</text>
  <rect x="222" y="878" width="60" height="75" rx="6" fill="#1a1a1a" stroke="#333" stroke-width="1.5"/>
  <text x="252.0" y="915.5" text-anchor="middle" dominant-baseline="central" fill="#555" font-size="15px" font-family="monospace">·</text>
  <rect x="24" y="971" width="147" height="75" rx="6" fill="#2d2d2d" stroke="#555" stroke-width="1.5"/>
  <text x="97.5" y="1008.5" text-anchor="middle" dominant-baseline="central" fill="#e0e0e0" font-size="12px" font-family="monospace">Home</text>
  <rect x="177" y="971" width="60" height="75" rx="6" fill="#2d2d2d" stroke="#555" stroke-width="1.5"/>
  <text x="207.0" y="1008.5" text-anchor="middle" dominant-baseline="central" fill="#e0e0e0" font-size="12px" font-family="monospace">PgUp</text>
  <rect x="243" y="971" width="60" height="75" rx="6" fill="#2d2d2d" stroke="#555" stroke-width="1.5"/>
  <text x="273.0" y="1008.5" text-anchor="middle" dominant-baseline="central" fill="#e0e0e0" font-size="12px" font-family="monospace">PgDn</text>
  <rect x="309" y="971" width="60" height="75" rx="6" fill="#2d2d2d" stroke="#555" stroke-width="1.5"/>
  <text x="339.0" y="1008.5" text-anchor="middle" dominant-baseline="central" fill="#e0e0e0" font-size="15px" font-family="monospace">End</text>
  <text x="24" y="1084" fill="#8000ff" font-size="15px" font-weight="bold" font-family="monospace">L2  _HYPR     Ctrl+Alt+Shift+Super + letter</text>
  <rect x="24" y="1094" width="60" height="45" rx="6" fill="#00b4b4" stroke="#00b4b4" stroke-width="1.5"/>
  <text x="54.0" y="1116.5" text-anchor="middle" dominant-baseline="central" fill="#0e0e0e" font-size="15px" font-family="monospace">Num</text>
  <rect x="90" y="1094" width="60" height="45" rx="6" fill="#8000ff" stroke="#8000ff" stroke-width="1.5"/>
  <text x="120.0" y="1116.5" text-anchor="middle" dominant-baseline="central" fill="#0e0e0e" font-size="12px" font-family="monospace">→HYPR</text>
  <rect x="156" y="1094" width="60" height="45" rx="6" fill="#0050ff" stroke="#0050ff" stroke-width="1.5"/>
  <text x="186.0" y="1116.5" text-anchor="middle" dominant-baseline="central" fill="#0e0e0e" font-size="12px" font-family="monospace">→LCAG</text>
  <rect x="222" y="1094" width="60" height="45" rx="6" fill="#ffa000" stroke="#ffa000" stroke-width="1.5"/>
  <text x="252.0" y="1116.5" text-anchor="middle" dominant-baseline="central" fill="#0e0e0e" font-size="12px" font-family="monospace">→MEH</text>
  <rect x="24" y="1145" width="60" height="75" rx="6" fill="#2d2d2d" stroke="#8000ff" stroke-width="1.5"/>
  <text x="54.0" y="1182.5" text-anchor="middle" dominant-baseline="central" fill="#e0e0e0" font-size="15px" font-family="monospace">A</text>
  <rect x="90" y="1145" width="60" height="75" rx="6" fill="#2d2d2d" stroke="#8000ff" stroke-width="1.5"/>
  <text x="120.0" y="1182.5" text-anchor="middle" dominant-baseline="central" fill="#e0e0e0" font-size="15px" font-family="monospace">B</text>
  <rect x="156" y="1145" width="60" height="75" rx="6" fill="#2d2d2d" stroke="#8000ff" stroke-width="1.5"/>
  <text x="186.0" y="1182.5" text-anchor="middle" dominant-baseline="central" fill="#e0e0e0" font-size="15px" font-family="monospace">C</text>
  <rect x="222" y="1145" width="60" height="75" rx="6" fill="#2d2d2d" stroke="#8000ff" stroke-width="1.5"/>
  <text x="252.0" y="1182.5" text-anchor="middle" dominant-baseline="central" fill="#e0e0e0" font-size="15px" font-family="monospace">D</text>
  <rect x="24" y="1238" width="60" height="75" rx="6" fill="#2d2d2d" stroke="#8000ff" stroke-width="1.5"/>
  <text x="54.0" y="1275.5" text-anchor="middle" dominant-baseline="central" fill="#e0e0e0" font-size="15px" font-family="monospace">E</text>
  <rect x="90" y="1238" width="60" height="75" rx="6" fill="#2d2d2d" stroke="#8000ff" stroke-width="1.5"/>
  <text x="120.0" y="1275.5" text-anchor="middle" dominant-baseline="central" fill="#e0e0e0" font-size="15px" font-family="monospace">F</text>
  <rect x="156" y="1238" width="60" height="75" rx="6" fill="#2d2d2d" stroke="#8000ff" stroke-width="1.5"/>
  <text x="186.0" y="1275.5" text-anchor="middle" dominant-baseline="central" fill="#e0e0e0" font-size="15px" font-family="monospace">G</text>
  <rect x="222" y="1238" width="60" height="75" rx="6" fill="#2d2d2d" stroke="#8000ff" stroke-width="1.5"/>
  <text x="252.0" y="1275.5" text-anchor="middle" dominant-baseline="central" fill="#e0e0e0" font-size="15px" font-family="monospace">H</text>
  <rect x="24" y="1319" width="60" height="75" rx="6" fill="#2d2d2d" stroke="#8000ff" stroke-width="1.5"/>
  <text x="54.0" y="1356.5" text-anchor="middle" dominant-baseline="central" fill="#e0e0e0" font-size="15px" font-family="monospace">I</text>
  <rect x="90" y="1319" width="60" height="75" rx="6" fill="#2d2d2d" stroke="#8000ff" stroke-width="1.5"/>
  <text x="120.0" y="1356.5" text-anchor="middle" dominant-baseline="central" fill="#e0e0e0" font-size="15px" font-family="monospace">J</text>
  <rect x="156" y="1319" width="60" height="75" rx="6" fill="#2d2d2d" stroke="#8000ff" stroke-width="1.5"/>
  <text x="186.0" y="1356.5" text-anchor="middle" dominant-baseline="central" fill="#e0e0e0" font-size="15px" font-family="monospace">K</text>
  <rect x="222" y="1319" width="60" height="75" rx="6" fill="#2d2d2d" stroke="#8000ff" stroke-width="1.5"/>
  <text x="252.0" y="1356.5" text-anchor="middle" dominant-baseline="central" fill="#e0e0e0" font-size="15px" font-family="monospace">L</text>
  <rect x="24" y="1400" width="60" height="75" rx="6" fill="#2d2d2d" stroke="#8000ff" stroke-width="1.5"/>
  <text x="54.0" y="1437.5" text-anchor="middle" dominant-baseline="central" fill="#e0e0e0" font-size="15px" font-family="monospace">M</text>
  <rect x="90" y="1400" width="60" height="75" rx="6" fill="#2d2d2d" stroke="#8000ff" stroke-width="1.5"/>
  <text x="120.0" y="1437.5" text-anchor="middle" dominant-baseline="central" fill="#e0e0e0" font-size="15px" font-family="monospace">N</text>
  <rect x="156" y="1400" width="60" height="75" rx="6" fill="#2d2d2d" stroke="#8000ff" stroke-width="1.5"/>
  <text x="186.0" y="1437.5" text-anchor="middle" dominant-baseline="central" fill="#e0e0e0" font-size="15px" font-family="monospace">O</text>
  <rect x="222" y="1400" width="60" height="75" rx="6" fill="#2d2d2d" stroke="#8000ff" stroke-width="1.5"/>
  <text x="252.0" y="1437.5" text-anchor="middle" dominant-baseline="central" fill="#e0e0e0" font-size="15px" font-family="monospace">P</text>
  <rect x="24" y="1493" width="147" height="75" rx="6" fill="#2d2d2d" stroke="#555" stroke-width="1.5"/>
  <text x="97.5" y="1530.5" text-anchor="middle" dominant-baseline="central" fill="#e0e0e0" font-size="12px" font-family="monospace">Home</text>
  <rect x="177" y="1493" width="60" height="75" rx="6" fill="#2d2d2d" stroke="#555" stroke-width="1.5"/>
  <text x="207.0" y="1530.5" text-anchor="middle" dominant-baseline="central" fill="#e0e0e0" font-size="12px" font-family="monospace">PgUp</text>
  <rect x="243" y="1493" width="60" height="75" rx="6" fill="#2d2d2d" stroke="#555" stroke-width="1.5"/>
  <text x="273.0" y="1530.5" text-anchor="middle" dominant-baseline="central" fill="#e0e0e0" font-size="12px" font-family="monospace">PgDn</text>
  <rect x="309" y="1493" width="60" height="75" rx="6" fill="#2d2d2d" stroke="#555" stroke-width="1.5"/>
  <text x="339.0" y="1530.5" text-anchor="middle" dominant-baseline="central" fill="#e0e0e0" font-size="15px" font-family="monospace">End</text>
  <text x="24" y="1606" fill="#0050ff" font-size="15px" font-weight="bold" font-family="monospace">L3  _LCAG     Ctrl+Alt+Super + letter</text>
  <rect x="24" y="1616" width="60" height="45" rx="6" fill="#00b4b4" stroke="#00b4b4" stroke-width="1.5"/>
  <text x="54.0" y="1638.5" text-anchor="middle" dominant-baseline="central" fill="#0e0e0e" font-size="15px" font-family="monospace">Num</text>
  <rect x="90" y="1616" width="60" height="45" rx="6" fill="#8000ff" stroke="#8000ff" stroke-width="1.5"/>
  <text x="120.0" y="1638.5" text-anchor="middle" dominant-baseline="central" fill="#0e0e0e" font-size="12px" font-family="monospace">→HYPR</text>
  <rect x="156" y="1616" width="60" height="45" rx="6" fill="#0050ff" stroke="#0050ff" stroke-width="1.5"/>
  <text x="186.0" y="1638.5" text-anchor="middle" dominant-baseline="central" fill="#0e0e0e" font-size="12px" font-family="monospace">→LCAG</text>
  <rect x="222" y="1616" width="60" height="45" rx="6" fill="#ffa000" stroke="#ffa000" stroke-width="1.5"/>
  <text x="252.0" y="1638.5" text-anchor="middle" dominant-baseline="central" fill="#0e0e0e" font-size="12px" font-family="monospace">→MEH</text>
  <rect x="24" y="1667" width="60" height="75" rx="6" fill="#2d2d2d" stroke="#0050ff" stroke-width="1.5"/>
  <text x="54.0" y="1704.5" text-anchor="middle" dominant-baseline="central" fill="#e0e0e0" font-size="15px" font-family="monospace">A</text>
  <rect x="90" y="1667" width="60" height="75" rx="6" fill="#2d2d2d" stroke="#0050ff" stroke-width="1.5"/>
  <text x="120.0" y="1704.5" text-anchor="middle" dominant-baseline="central" fill="#e0e0e0" font-size="15px" font-family="monospace">B</text>
  <rect x="156" y="1667" width="60" height="75" rx="6" fill="#2d2d2d" stroke="#0050ff" stroke-width="1.5"/>
  <text x="186.0" y="1704.5" text-anchor="middle" dominant-baseline="central" fill="#e0e0e0" font-size="15px" font-family="monospace">C</text>
  <rect x="222" y="1667" width="60" height="75" rx="6" fill="#2d2d2d" stroke="#0050ff" stroke-width="1.5"/>
  <text x="252.0" y="1704.5" text-anchor="middle" dominant-baseline="central" fill="#e0e0e0" font-size="15px" font-family="monospace">D</text>
  <rect x="24" y="1760" width="60" height="75" rx="6" fill="#2d2d2d" stroke="#0050ff" stroke-width="1.5"/>
  <text x="54.0" y="1797.5" text-anchor="middle" dominant-baseline="central" fill="#e0e0e0" font-size="15px" font-family="monospace">E</text>
  <rect x="90" y="1760" width="60" height="75" rx="6" fill="#2d2d2d" stroke="#0050ff" stroke-width="1.5"/>
  <text x="120.0" y="1797.5" text-anchor="middle" dominant-baseline="central" fill="#e0e0e0" font-size="15px" font-family="monospace">F</text>
  <rect x="156" y="1760" width="60" height="75" rx="6" fill="#2d2d2d" stroke="#0050ff" stroke-width="1.5"/>
  <text x="186.0" y="1797.5" text-anchor="middle" dominant-baseline="central" fill="#e0e0e0" font-size="15px" font-family="monospace">G</text>
  <rect x="222" y="1760" width="60" height="75" rx="6" fill="#2d2d2d" stroke="#0050ff" stroke-width="1.5"/>
  <text x="252.0" y="1797.5" text-anchor="middle" dominant-baseline="central" fill="#e0e0e0" font-size="15px" font-family="monospace">H</text>
  <rect x="24" y="1841" width="60" height="75" rx="6" fill="#2d2d2d" stroke="#0050ff" stroke-width="1.5"/>
  <text x="54.0" y="1878.5" text-anchor="middle" dominant-baseline="central" fill="#e0e0e0" font-size="15px" font-family="monospace">I</text>
  <rect x="90" y="1841" width="60" height="75" rx="6" fill="#2d2d2d" stroke="#0050ff" stroke-width="1.5"/>
  <text x="120.0" y="1878.5" text-anchor="middle" dominant-baseline="central" fill="#e0e0e0" font-size="15px" font-family="monospace">J</text>
  <rect x="156" y="1841" width="60" height="75" rx="6" fill="#2d2d2d" stroke="#0050ff" stroke-width="1.5"/>
  <text x="186.0" y="1878.5" text-anchor="middle" dominant-baseline="central" fill="#e0e0e0" font-size="15px" font-family="monospace">K</text>
  <rect x="222" y="1841" width="60" height="75" rx="6" fill="#2d2d2d" stroke="#0050ff" stroke-width="1.5"/>
  <text x="252.0" y="1878.5" text-anchor="middle" dominant-baseline="central" fill="#e0e0e0" font-size="15px" font-family="monospace">L</text>
  <rect x="24" y="1922" width="60" height="75" rx="6" fill="#2d2d2d" stroke="#0050ff" stroke-width="1.5"/>
  <text x="54.0" y="1959.5" text-anchor="middle" dominant-baseline="central" fill="#e0e0e0" font-size="15px" font-family="monospace">M</text>
  <rect x="90" y="1922" width="60" height="75" rx="6" fill="#2d2d2d" stroke="#0050ff" stroke-width="1.5"/>
  <text x="120.0" y="1959.5" text-anchor="middle" dominant-baseline="central" fill="#e0e0e0" font-size="15px" font-family="monospace">N</text>
  <rect x="156" y="1922" width="60" height="75" rx="6" fill="#2d2d2d" stroke="#0050ff" stroke-width="1.5"/>
  <text x="186.0" y="1959.5" text-anchor="middle" dominant-baseline="central" fill="#e0e0e0" font-size="15px" font-family="monospace">O</text>
  <rect x="222" y="1922" width="60" height="75" rx="6" fill="#2d2d2d" stroke="#0050ff" stroke-width="1.5"/>
  <text x="252.0" y="1959.5" text-anchor="middle" dominant-baseline="central" fill="#e0e0e0" font-size="15px" font-family="monospace">P</text>
  <rect x="24" y="2015" width="147" height="75" rx="6" fill="#2d2d2d" stroke="#555" stroke-width="1.5"/>
  <text x="97.5" y="2052.5" text-anchor="middle" dominant-baseline="central" fill="#e0e0e0" font-size="12px" font-family="monospace">Home</text>
  <rect x="177" y="2015" width="60" height="75" rx="6" fill="#2d2d2d" stroke="#555" stroke-width="1.5"/>
  <text x="207.0" y="2052.5" text-anchor="middle" dominant-baseline="central" fill="#e0e0e0" font-size="12px" font-family="monospace">PgUp</text>
  <rect x="243" y="2015" width="60" height="75" rx="6" fill="#2d2d2d" stroke="#555" stroke-width="1.5"/>
  <text x="273.0" y="2052.5" text-anchor="middle" dominant-baseline="central" fill="#e0e0e0" font-size="12px" font-family="monospace">PgDn</text>
  <rect x="309" y="2015" width="60" height="75" rx="6" fill="#2d2d2d" stroke="#555" stroke-width="1.5"/>
  <text x="339.0" y="2052.5" text-anchor="middle" dominant-baseline="central" fill="#e0e0e0" font-size="15px" font-family="monospace">End</text>
  <text x="24" y="2128" fill="#ffa000" font-size="15px" font-weight="bold" font-family="monospace">L4  _MEH      Ctrl+Alt+Shift + letter</text>
  <rect x="24" y="2138" width="60" height="45" rx="6" fill="#00b4b4" stroke="#00b4b4" stroke-width="1.5"/>
  <text x="54.0" y="2160.5" text-anchor="middle" dominant-baseline="central" fill="#0e0e0e" font-size="15px" font-family="monospace">Num</text>
  <rect x="90" y="2138" width="60" height="45" rx="6" fill="#8000ff" stroke="#8000ff" stroke-width="1.5"/>
  <text x="120.0" y="2160.5" text-anchor="middle" dominant-baseline="central" fill="#0e0e0e" font-size="12px" font-family="monospace">→HYPR</text>
  <rect x="156" y="2138" width="60" height="45" rx="6" fill="#0050ff" stroke="#0050ff" stroke-width="1.5"/>
  <text x="186.0" y="2160.5" text-anchor="middle" dominant-baseline="central" fill="#0e0e0e" font-size="12px" font-family="monospace">→LCAG</text>
  <rect x="222" y="2138" width="60" height="45" rx="6" fill="#ffa000" stroke="#ffa000" stroke-width="1.5"/>
  <text x="252.0" y="2160.5" text-anchor="middle" dominant-baseline="central" fill="#0e0e0e" font-size="12px" font-family="monospace">→MEH</text>
  <rect x="24" y="2189" width="60" height="75" rx="6" fill="#2d2d2d" stroke="#ffa000" stroke-width="1.5"/>
  <text x="54.0" y="2226.5" text-anchor="middle" dominant-baseline="central" fill="#e0e0e0" font-size="15px" font-family="monospace">A</text>
  <rect x="90" y="2189" width="60" height="75" rx="6" fill="#2d2d2d" stroke="#ffa000" stroke-width="1.5"/>
  <text x="120.0" y="2226.5" text-anchor="middle" dominant-baseline="central" fill="#e0e0e0" font-size="15px" font-family="monospace">B</text>
  <rect x="156" y="2189" width="60" height="75" rx="6" fill="#2d2d2d" stroke="#ffa000" stroke-width="1.5"/>
  <text x="186.0" y="2226.5" text-anchor="middle" dominant-baseline="central" fill="#e0e0e0" font-size="15px" font-family="monospace">C</text>
  <rect x="222" y="2189" width="60" height="75" rx="6" fill="#2d2d2d" stroke="#ffa000" stroke-width="1.5"/>
  <text x="252.0" y="2226.5" text-anchor="middle" dominant-baseline="central" fill="#e0e0e0" font-size="15px" font-family="monospace">D</text>
  <rect x="24" y="2282" width="60" height="75" rx="6" fill="#2d2d2d" stroke="#ffa000" stroke-width="1.5"/>
  <text x="54.0" y="2319.5" text-anchor="middle" dominant-baseline="central" fill="#e0e0e0" font-size="15px" font-family="monospace">E</text>
  <rect x="90" y="2282" width="60" height="75" rx="6" fill="#2d2d2d" stroke="#ffa000" stroke-width="1.5"/>
  <text x="120.0" y="2319.5" text-anchor="middle" dominant-baseline="central" fill="#e0e0e0" font-size="15px" font-family="monospace">F</text>
  <rect x="156" y="2282" width="60" height="75" rx="6" fill="#2d2d2d" stroke="#ffa000" stroke-width="1.5"/>
  <text x="186.0" y="2319.5" text-anchor="middle" dominant-baseline="central" fill="#e0e0e0" font-size="15px" font-family="monospace">G</text>
  <rect x="222" y="2282" width="60" height="75" rx="6" fill="#2d2d2d" stroke="#ffa000" stroke-width="1.5"/>
  <text x="252.0" y="2319.5" text-anchor="middle" dominant-baseline="central" fill="#e0e0e0" font-size="15px" font-family="monospace">H</text>
  <rect x="24" y="2363" width="60" height="75" rx="6" fill="#2d2d2d" stroke="#ffa000" stroke-width="1.5"/>
  <text x="54.0" y="2400.5" text-anchor="middle" dominant-baseline="central" fill="#e0e0e0" font-size="15px" font-family="monospace">I</text>
  <rect x="90" y="2363" width="60" height="75" rx="6" fill="#2d2d2d" stroke="#ffa000" stroke-width="1.5"/>
  <text x="120.0" y="2400.5" text-anchor="middle" dominant-baseline="central" fill="#e0e0e0" font-size="15px" font-family="monospace">J</text>
  <rect x="156" y="2363" width="60" height="75" rx="6" fill="#2d2d2d" stroke="#ffa000" stroke-width="1.5"/>
  <text x="186.0" y="2400.5" text-anchor="middle" dominant-baseline="central" fill="#e0e0e0" font-size="15px" font-family="monospace">K</text>
  <rect x="222" y="2363" width="60" height="75" rx="6" fill="#2d2d2d" stroke="#ffa000" stroke-width="1.5"/>
  <text x="252.0" y="2400.5" text-anchor="middle" dominant-baseline="central" fill="#e0e0e0" font-size="15px" font-family="monospace">L</text>
  <rect x="24" y="2444" width="60" height="75" rx="6" fill="#2d2d2d" stroke="#ffa000" stroke-width="1.5"/>
  <text x="54.0" y="2481.5" text-anchor="middle" dominant-baseline="central" fill="#e0e0e0" font-size="15px" font-family="monospace">M</text>
  <rect x="90" y="2444" width="60" height="75" rx="6" fill="#2d2d2d" stroke="#ffa000" stroke-width="1.5"/>
  <text x="120.0" y="2481.5" text-anchor="middle" dominant-baseline="central" fill="#e0e0e0" font-size="15px" font-family="monospace">N</text>
  <rect x="156" y="2444" width="60" height="75" rx="6" fill="#2d2d2d" stroke="#ffa000" stroke-width="1.5"/>
  <text x="186.0" y="2481.5" text-anchor="middle" dominant-baseline="central" fill="#e0e0e0" font-size="15px" font-family="monospace">O</text>
  <rect x="222" y="2444" width="60" height="75" rx="6" fill="#2d2d2d" stroke="#ffa000" stroke-width="1.5"/>
  <text x="252.0" y="2481.5" text-anchor="middle" dominant-baseline="central" fill="#e0e0e0" font-size="15px" font-family="monospace">P</text>
  <rect x="24" y="2537" width="147" height="75" rx="6" fill="#2d2d2d" stroke="#555" stroke-width="1.5"/>
  <text x="97.5" y="2574.5" text-anchor="middle" dominant-baseline="central" fill="#e0e0e0" font-size="12px" font-family="monospace">Home</text>
  <rect x="177" y="2537" width="60" height="75" rx="6" fill="#2d2d2d" stroke="#555" stroke-width="1.5"/>
  <text x="207.0" y="2574.5" text-anchor="middle" dominant-baseline="central" fill="#e0e0e0" font-size="12px" font-family="monospace">PgUp</text>
  <rect x="243" y="2537" width="60" height="75" rx="6" fill="#2d2d2d" stroke="#555" stroke-width="1.5"/>
  <text x="273.0" y="2574.5" text-anchor="middle" dominant-baseline="central" fill="#e0e0e0" font-size="12px" font-family="monospace">PgDn</text>
  <rect x="309" y="2537" width="60" height="75" rx="6" fill="#2d2d2d" stroke="#555" stroke-width="1.5"/>
  <text x="339.0" y="2574.5" text-anchor="middle" dominant-baseline="central" fill="#e0e0e0" font-size="15px" font-family="monospace">End</text>
  <text x="322" y="28" fill="#aaa" font-size="12px" font-family="monospace" font-weight="bold">Layer colors</text>
  <rect x="322" y="42" width="14" height="12" fill="#00b4b4" rx="2"/>
  <text x="344" y="48" fill="#aaa" font-size="10px" font-family="monospace" dominant-baseline="central">_NUM_ON  (Num Lock on)</text>
  <rect x="322" y="60" width="14" height="12" fill="#00b400" rx="2"/>
  <text x="344" y="66" fill="#aaa" font-size="10px" font-family="monospace" dominant-baseline="central">_NUM_OFF (Num Lock off)</text>
  <rect x="322" y="78" width="14" height="12" fill="#8000ff" rx="2"/>
  <text x="344" y="84" fill="#aaa" font-size="10px" font-family="monospace" dominant-baseline="central">_HYPR    Ctrl+Alt+Shift+Super</text>
  <rect x="322" y="96" width="14" height="12" fill="#0050ff" rx="2"/>
  <text x="344" y="102" fill="#aaa" font-size="10px" font-family="monospace" dominant-baseline="central">_LCAG    Ctrl+Alt+Super</text>
  <rect x="322" y="114" width="14" height="12" fill="#ffa000" rx="2"/>
  <text x="344" y="120" fill="#aaa" font-size="10px" font-family="monospace" dominant-baseline="central">_MEH     Ctrl+Alt+Shift</text>
</svg>